<?xml version="1.0" encoding="UTF-8"?>
<svg version="1.1" xmlns="http://www.w3.org/2000/svg" width="1024" height="200">
<path d="M0 0 C3.08382922 1.40121849 4.87170105 3.40043486 7 6 C7.62390625 6.75410156 8.2478125 7.50820313 8.890625 8.28515625 C10.36206466 10.09175716 11.82215385 11.90763654 13.2734375 13.73046875 C17.1070386 18.42787668 21.32986996 22.776304 25.5078125 27.16552734 C29.09921513 30.94429924 32.66695928 34.73151068 36.01348877 38.73091125 C37.98304141 41.04963408 37.98304141 41.04963408 40.28833008 43.1799469 C47.13239355 50.22970267 48.12114592 55.72861629 48.0453186 65.11294556 C48.00269172 66.77584709 47.95891332 68.43871946 47.9140625 70.1015625 C47.89978564 71.8321973 47.88938386 73.56286796 47.88265991 75.29354858 C47.85417936 79.81518359 47.77082156 84.33418953 47.67626953 88.8548584 C47.59072077 93.47713969 47.56287807 98.09977261 47.52734375 102.72265625 C47.46408351 109.44917228 47.38848383 116.1753301 47.25634766 122.90087891 C47.24053146 123.96360016 47.24053146 123.96360016 47.22439575 125.04779053 C47.11602615 129.88397385 47.11602615 129.88397385 46 131 C43.48863896 131.09975032 41.01096585 131.13882183 38.5 131.125 C37.44619141 131.13080078 37.44619141 131.13080078 36.37109375 131.13671875 C31.12661378 131.12661378 31.12661378 131.12661378 30 130 C29.89701857 127.82329213 29.86426411 125.64324533 29.8581543 123.46411133 C29.85467987 122.78109955 29.85120544 122.09808777 29.84762573 121.39437866 C29.84025567 119.90584445 29.83491698 118.41729914 29.83133507 116.92875099 C29.82418343 114.57038544 29.80852509 112.21222965 29.78999329 109.85392761 C29.73747529 103.1467077 29.68957926 96.43959863 29.67407227 89.73217773 C29.66397254 85.63295843 29.63459251 81.53426048 29.59275246 77.43524742 C29.58045974 75.874447 29.57531805 74.31357284 29.57755089 72.7527256 C29.57991235 70.56220879 29.55767489 68.37317695 29.5300293 66.18286133 C29.52416306 64.93789383 29.51829681 63.69292633 29.51225281 62.41023254 C28.71819896 57.12395939 25.71110339 53.5127921 22.08203125 49.73828125 C21.29094971 48.90466064 21.29094971 48.90466064 20.48388672 48.05419922 C19.65655029 47.19205811 19.65655029 47.19205811 18.8125 46.3125 C14.05629656 41.28018985 9.57764643 36.12830804 5.25 30.71875 C2.72557118 27.66839851 0.07200694 24.77193774 -2.625 21.875 C-14.79107492 8.70124705 -14.79107492 8.70124705 -15.4375 3.4375 C-15.293125 2.633125 -15.14875 1.82875 -15 1 C-10.5166645 -1.24166775 -4.85403913 -0.58271778 0 0 Z " fill="#000000" transform="translate(45,31)"/>
<path d="M0 0 C2.7302389 -0.1083667 5.45614543 -0.18746694 8.1875 -0.25 C8.95642578 -0.28351562 9.72535156 -0.31703125 10.51757812 -0.3515625 C14.44492511 -0.41898477 16.46156183 -0.33983393 19.859375 1.8046875 C23.53257484 5.57172821 23.53257484 5.57172821 25.0625 7.375 C25.65675781 8.06851563 26.25101563 8.76203125 26.86328125 9.4765625 C27.56839844 10.30929688 28.27351563 11.14203125 29 12 C30.91371731 14.25252303 32.83078445 16.50216002 34.75 18.75 C35.26272461 19.35070312 35.77544922 19.95140625 36.30371094 20.5703125 C40.60605372 25.58837212 45.04797699 30.46432084 49.53125 35.3203125 C52.1761592 38.19121078 54.81558026 41.05801057 57.32019043 44.05270386 C58.92853776 45.98351824 58.92853776 45.98351824 60.60070801 47.51443481 C66.88223975 54.1695156 65.79350893 62.57703343 65.65625 71.1171875 C65.65012718 72.78247392 65.64638075 74.44777061 65.64489746 76.11306763 C65.63572852 79.58815233 65.60701285 83.06230037 65.5625 86.53710938 C65.50567198 90.99616664 65.48404693 95.45449239 65.4751358 99.91387749 C65.46683806 103.34536063 65.44721654 106.77669553 65.42338562 110.20810318 C65.41198022 111.85317933 65.4024628 113.49826968 65.39485168 115.14336777 C65.38114792 117.43421484 65.35390277 119.72447601 65.32226562 122.01513672 C65.30860962 123.3189328 65.29495361 124.62272888 65.28088379 125.96603394 C65 129 65 129 63 131 C60.43707683 131.17163731 57.99654143 131.23264558 55.4375 131.1875 C54.73947266 131.18685547 54.04144531 131.18621094 53.32226562 131.18554688 C48.14031158 131.14031158 48.14031158 131.14031158 47 130 C46.91811133 127.84392567 46.90655787 125.68516409 46.92163086 123.52758789 C46.92775032 122.12443621 46.93367671 120.72128369 46.93943787 119.31813049 C46.94411009 118.5699814 46.94878231 117.82183231 46.95359612 117.05101204 C46.97274021 113.08802155 46.95755614 109.12511369 46.94726562 105.16210938 C46.93504889 100.11905907 46.93311014 95.07685262 46.97583008 90.03393555 C47.00943029 85.96031766 47.00363277 81.88837181 46.97226143 77.81475639 C46.96736384 76.26836537 46.97648886 74.72185863 47.00047112 73.17564583 C47.13247615 64.12458559 46.55177918 57.86806402 40.01782227 50.94369507 C39.35194092 50.3022757 38.68605957 49.66085632 38 49 C36.9637746 47.86114908 35.93234363 46.71787377 34.91015625 45.56640625 C33.96348718 44.56269326 33.01426985 43.56137749 32.0625 42.5625 C27.5980491 37.79967017 23.37509748 32.91232644 19.28515625 27.8203125 C17.1626526 25.20074389 14.99908733 22.62527274 12.81176758 20.06005859 C10.52939757 17.38326712 8.26326192 14.69295116 6 12 C5.24460937 11.1028125 4.48921875 10.205625 3.7109375 9.28125 C3.06382813 8.4871875 2.41671875 7.693125 1.75 6.875 C0.90695313 5.85019531 0.90695313 5.85019531 0.046875 4.8046875 C-0.29859375 4.20914063 -0.6440625 3.61359375 -1 3 C-0.67 2.01 -0.34 1.02 0 0 Z " fill="#000000" transform="translate(72,31)"/>
<path d="M0 0 C1.9375 1.1875 1.9375 1.1875 3 3 C3 6.34659774 2.17527973 7.78514098 0.0625 10.375 C-4.64398239 14.70170859 -10.15179227 18.20182277 -15.54296875 21.60546875 C-21.51896338 25.19881141 -21.51896338 25.19881141 -25 31 C-24.7126054 33.01176219 -24.42179285 35.02397027 -24.05859375 37.0234375 C-23.96200067 40.28184422 -26.21580834 42.3794685 -28 45 C-27.82210937 46.06347656 -27.64421875 47.12695312 -27.4609375 48.22265625 C-26.90458183 52.78194383 -27.81264433 55.18783346 -29.625 59.375 C-29.87378906 60.00277344 -30.12257813 60.63054687 -30.37890625 61.27734375 C-31.1640625 63.0859375 -31.1640625 63.0859375 -33 66 C-35.7109375 66.9140625 -35.7109375 66.9140625 -38 67 C-39.47688107 57.68308009 -40.78387098 48.35384344 -42 39 C-46.57896472 39.5351157 -49.78014506 40.7430958 -53.75 43.0625 C-58.80941176 46 -58.80941176 46 -61 46 C-60.87625 47.85625 -60.87625 47.85625 -60.75 49.75 C-60.609375 51.859375 -60.609375 51.859375 -61 54 C-63.015625 56.265625 -63.015625 56.265625 -65 58 C-67.3564886 55.01756912 -69.6835133 52.01359765 -72 49 C-73.11181641 47.56140625 -73.11181641 47.56140625 -74.24609375 46.09375 C-74.96925781 45.1346875 -75.69242188 44.175625 -76.4375 43.1875 C-77.11683594 42.29417969 -77.79617188 41.40085938 -78.49609375 40.48046875 C-80 38 -80 38 -80 34 C-76.56519298 32.88873891 -75.32713984 32.84324549 -72 34.4375 C-71.01 34.953125 -70.02 35.46875 -69 36 C-65.41101029 36.63999467 -63.43619668 35.84450006 -60.484375 33.91796875 C-59.23072719 33.02005012 -57.98609042 32.10943881 -56.75 31.1875 C-56.11320313 30.73568359 -55.47640625 30.28386719 -54.8203125 29.81835938 C-51.02380903 27.10452513 -51.02380903 27.10452513 -49 23 C-49.58644287 22.71697021 -50.17288574 22.43394043 -50.77709961 22.14233398 C-54.21206645 20.37712697 -57.35474972 18.20615568 -60.5625 16.0625 C-61.23474609 15.61970703 -61.90699219 15.17691406 -62.59960938 14.72070312 C-63.24865234 14.28822266 -63.89769531 13.85574219 -64.56640625 13.41015625 C-65.44727905 12.82439819 -65.44727905 12.82439819 -66.34594727 12.22680664 C-68.06921213 10.94866555 -69.52191204 9.55164144 -71 8 C-70.67 7.01 -70.34 6.02 -70 5 C-64.46388128 4.77855525 -60.26479603 5.13538474 -55 7 C-52.65188995 7.29151706 -50.3136507 7.49567002 -47.953125 7.65625 C-46 8 -46 8 -44 10 C-41.3252152 10.74543183 -38.70868883 11.41921807 -36 12 C-35.23743896 12.22598877 -34.47487793 12.45197754 -33.68920898 12.68481445 C-30.23014004 13.09023052 -28.80541772 12.22527401 -25.8046875 10.5078125 C-24.36029297 9.69763672 -24.36029297 9.69763672 -22.88671875 8.87109375 C-21.89285156 8.29488281 -20.89898438 7.71867187 -19.875 7.125 C-17.89425562 6.00079373 -15.91252824 4.87831713 -13.9296875 3.7578125 C-13.05554199 3.2539502 -12.18139648 2.75008789 -11.28076172 2.23095703 C-7.41203886 0.14295653 -4.3611441 -0.36342868 0 0 Z " fill="#000000" transform="translate(975,31)"/>
<path d="M0 0 C0 0.66 0 1.32 0 2 C-5.43116314 1.02060992 -10.74806871 -0.17322374 -16.06958008 -1.6237793 C-79.10295312 -18.74552047 -145.32076411 -23.43532451 -210.4206543 -23.26074219 C-214.70757203 -23.24933973 -218.99424145 -23.25615439 -223.28115082 -23.26761913 C-253.23382293 -23.33547136 -283.06031501 -22.16977152 -312.875 -19.1875 C-313.72458282 -19.10484894 -314.57416565 -19.02219788 -315.44949341 -18.93704224 C-338.86282155 -16.65351712 -362.23710958 -13.7303165 -385.43652344 -9.81884766 C-390.6961215 -8.96188928 -395.68341988 -8.73852885 -401 -9 C-334.87588121 -44.58165006 -209.63163499 -34.52724403 0 0 Z " fill="#000000" transform="translate(887,65)"/>
<path d="M0 0 C0.67997543 -0.00379669 1.35995087 -0.00759338 2.06053162 -0.01150513 C4.30766965 -0.01891359 6.55351408 0.00247148 8.80053711 0.02490234 C10.3608739 0.02728647 11.9212136 0.02819216 13.48155212 0.02767944 C16.75090516 0.03080779 20.01981975 0.04737665 23.2890625 0.07421875 C27.48481307 0.10822707 31.68008238 0.11584659 35.87595463 0.11432838 C39.09725052 0.11487154 42.31844068 0.12582939 45.53970146 0.14033127 C47.08709348 0.14670581 48.63449749 0.15063969 50.18190193 0.15211868 C52.34152883 0.15644327 54.50063977 0.17392432 56.66015625 0.1953125 C57.89020889 0.2029361 59.12026154 0.21055969 60.3875885 0.21841431 C63.26538086 0.48583984 63.26538086 0.48583984 65.26538086 2.48583984 C65.71459961 5.05224609 65.71459961 5.05224609 65.95288086 8.04833984 C66.03924805 9.03962891 66.12561523 10.03091797 66.21459961 11.05224609 C66.23135742 11.85533203 66.24811523 12.65841797 66.26538086 13.48583984 C63.18437796 16.56684275 54.01401562 15.47980941 49.87084961 15.51318359 C47.80169658 15.4956696 45.73258951 15.46677861 43.66381836 15.42333984 C41.25048866 15.31671836 41.25048866 15.31671836 39.26538086 16.48583984 C39.0931202 24.52739405 38.92743841 32.56907378 38.76538086 40.61083984 C38.72936768 42.38957993 38.72936768 42.38957993 38.69262695 44.20425415 C38.38989902 59.35957144 38.14134408 74.50572256 38.30249023 89.6640625 C38.35025378 95.69972144 38.15177898 101.50880804 37.26538086 107.48583984 C35.37985556 109.37136514 32.68769255 108.61830674 30.18334961 108.62255859 C29.38541992 108.61869141 28.58749023 108.61482422 27.76538086 108.61083984 C26.56848633 108.61664063 26.56848633 108.61664063 25.34741211 108.62255859 C19.39198853 108.61244752 19.39198853 108.61244752 18.26538086 107.48583984 C18.14012935 104.62571088 18.07928365 101.7885583 18.06005859 98.92700195 C18.050159 98.02952744 18.0402594 97.13205292 18.03005981 96.2073822 C17.99834546 93.22600996 17.9736483 90.24462175 17.94897461 87.26318359 C17.92841365 85.20194574 17.90741742 83.14071218 17.88600159 81.07948303 C17.83069226 75.64284741 17.7813222 70.20617318 17.7331543 64.76947021 C17.6830038 59.22632392 17.62728414 53.68323399 17.57202148 48.14013672 C17.4643316 37.25541919 17.36291084 26.37065282 17.26538086 15.48583984 C16.4882373 15.49107666 15.71109375 15.49631348 14.91040039 15.50170898 C11.40373537 15.5224414 7.89708323 15.53548805 4.39038086 15.54833984 C3.16706055 15.55671875 1.94374023 15.56509766 0.68334961 15.57373047 C-1.06655273 15.57856445 -1.06655273 15.57856445 -2.85180664 15.58349609 C-4.46998291 15.59135132 -4.46998291 15.59135132 -6.12084961 15.59936523 C-8.73461914 15.48583984 -8.73461914 15.48583984 -10.73461914 14.48583984 C-10.64693666 12.90150815 -10.53874585 11.31830417 -10.42211914 9.73583984 C-10.33510742 8.41326172 -10.33510742 8.41326172 -10.24633789 7.06396484 C-8.99269252 0.74788892 -6.08731125 -0.01409521 0 0 Z " fill="#000000" transform="translate(559.734619140625,53.51416015625)"/>
<path d="M0 0 C0.98263824 -0.01812744 1.96527649 -0.03625488 2.97769165 -0.05493164 C3.8356987 -0.07616089 4.69370575 -0.09739014 5.57771301 -0.1192627 C7.77774048 0.08374023 7.77774048 0.08374023 10.77774048 2.08374023 C12.01816978 6.03056073 11.93575904 9.97525764 11.77774048 14.08374023 C10.77774048 15.08374023 10.77774048 15.08374023 8.60049438 15.18139648 C7.19162964 15.16399414 7.19162964 15.16399414 5.75430298 15.14624023 C4.73336548 15.13850586 3.71242798 15.13077148 2.66055298 15.12280273 C0.49648935 15.09685473 -1.66757316 15.07081374 -3.83163452 15.04467773 C-4.85515015 15.03694336 -5.87866577 15.02920898 -6.93319702 15.02124023 C-8.34544556 15.00383789 -8.34544556 15.00383789 -9.78622437 14.98608398 C-12.36340246 14.97635816 -12.36340246 14.97635816 -15.22225952 16.08374023 C-15.23034637 17.1625798 -15.23843323 18.24141937 -15.24676514 19.35295105 C-15.32425219 29.52035451 -15.41199808 39.68762457 -15.50978661 49.85485363 C-15.5597309 55.08191969 -15.60606123 60.30896573 -15.64413452 65.53613281 C-15.68101073 70.5806991 -15.72737727 75.62509709 -15.78032303 80.66951942 C-15.79885451 82.5939978 -15.81396708 84.51851224 -15.82560349 86.44304466 C-15.84248713 89.13880012 -15.87152747 91.83417117 -15.90341187 94.52978516 C-15.90557205 95.32532303 -15.90773224 96.1208609 -15.90995789 96.94050598 C-15.97255639 101.08386633 -16.36287567 104.35504308 -18.22225952 108.08374023 C-21.03482233 108.11058336 -23.84713193 108.13050211 -26.65975952 108.14624023 C-27.86342163 108.15880859 -27.86342163 108.15880859 -29.09140015 108.17163086 C-31.13521173 108.18025454 -33.17909854 108.13602173 -35.22225952 108.08374023 C-37.3132778 105.99272196 -36.40818497 101.41202379 -36.42758179 98.52490234 C-36.43748138 97.62742783 -36.44738098 96.72995331 -36.45758057 95.80528259 C-36.48929492 92.82391035 -36.51399208 89.84252214 -36.53866577 86.86108398 C-36.55922673 84.79984613 -36.58022296 82.73861257 -36.60163879 80.67738342 C-36.65694812 75.2407478 -36.70631818 69.80407357 -36.75448608 64.36737061 C-36.80463658 58.82422431 -36.86035624 53.28113438 -36.9156189 47.73803711 C-37.02330878 36.85331958 -37.12472954 25.96855321 -37.22225952 15.08374023 C-38.43341431 15.09159546 -38.43341431 15.09159546 -39.66903687 15.09960938 C-43.3117699 15.12033952 -46.95449054 15.13338772 -50.59725952 15.14624023 C-51.86827515 15.15461914 -53.13929077 15.16299805 -54.44882202 15.17163086 C-56.26640015 15.17646484 -56.26640015 15.17646484 -58.12069702 15.18139648 C-59.80171509 15.18925171 -59.80171509 15.18925171 -61.51669312 15.19726562 C-64.22225952 15.08374023 -64.22225952 15.08374023 -66.22225952 14.08374023 C-65.9135483 12.29141686 -65.60016888 10.49989702 -65.28475952 8.70874023 C-65.11073608 7.71100586 -64.93671265 6.71327148 -64.75741577 5.68530273 C-64.22225952 3.08374023 -64.22225952 3.08374023 -63.22225952 1.08374023 C-55.58922763 0.95225014 -47.95617873 0.82178749 -40.32310772 0.69258881 C-36.77768288 0.63254706 -33.23226448 0.57216897 -29.68685913 0.51098633 C-25.5984161 0.44044802 -21.50994845 0.37143719 -17.42147827 0.30249023 C-16.16582565 0.28061646 -14.91017303 0.25874268 -13.61647034 0.23620605 C-11.25200862 0.19677108 -8.8874768 0.16127393 -6.52288818 0.13037109 C-4.34837489 0.09964985 -2.17399629 0.05649792 0 0 Z " fill="#000000" transform="translate(230.22225952148438,53.916259765625)"/>
<path d="M0 0 C0.0231211 12.89072255 0.04091389 25.7814402 0.05181217 38.67217922 C0.05704151 44.65719266 0.06414008 50.64219196 0.07543945 56.62719727 C0.08626653 62.39783429 0.09227645 68.16845768 0.09487724 73.93910408 C0.09673182 76.14602943 0.10035304 78.352954 0.10573006 80.55987358 C0.1129381 83.63946041 0.11399104 86.71899014 0.11352539 89.79858398 C0.11712067 90.72071182 0.12071594 91.64283966 0.12442017 92.59291077 C0.11405216 98.88594784 0.11405216 98.88594784 -1 100 C-2.34267413 100.08631874 -3.68974322 100.10706473 -5.03515625 100.09765625 C-5.84404297 100.09443359 -6.65292969 100.09121094 -7.48632812 100.08789062 C-8.33646484 100.07951172 -9.18660156 100.07113281 -10.0625 100.0625 C-10.91650391 100.05798828 -11.77050781 100.05347656 -12.65039062 100.04882812 C-14.76695663 100.03700373 -16.88348685 100.01906769 -19 100 C-19.90123938 95.37134279 -20.15910209 90.87870393 -20.17700195 86.17797852 C-20.18357315 85.41781433 -20.19014435 84.65765015 -20.19691467 83.87445068 C-20.21651669 81.37593467 -20.22827785 78.87747823 -20.23828125 76.37890625 C-20.24235678 75.52157331 -20.2464323 74.66424038 -20.25063133 73.78092766 C-20.27143139 69.24710206 -20.28576191 64.71330623 -20.29516602 60.17944336 C-20.30624698 55.50775143 -20.34068349 50.83653359 -20.38033772 46.1650095 C-20.40651635 42.56096022 -20.41485871 38.9570241 -20.41844749 35.35288811 C-20.4233064 33.63095823 -20.43490054 31.90903317 -20.45348549 30.18719673 C-20.47791537 27.77488844 -20.47690599 25.36381094 -20.4699707 22.95141602 C-20.48278076 22.24730087 -20.49559082 21.54318573 -20.50878906 20.81773376 C-20.4521767 15.39058292 -18.94757162 12.39316708 -16 8 C-14 6.07421875 -14 6.07421875 -12 4.6875 C-11.34 4.21699219 -10.68 3.74648437 -10 3.26171875 C-6.29221744 0.92262936 -4.52592952 0 0 0 Z " fill="#000000" transform="translate(523,62)"/>
<path d="M0 0 C4.52679464 0.83682049 6.63402451 3.46510629 9.5625 6.8125 C10.28469727 7.61397461 10.28469727 7.61397461 11.02148438 8.43164062 C12.36751648 9.93690074 13.68469363 11.46781868 15 13 C15.54074661 13.55874817 16.08149323 14.11749634 16.6386261 14.69317627 C18.59316552 18.00510837 18.39478507 21.1552322 18.34057617 24.88964844 C18.34123329 26.07558342 18.34123329 26.07558342 18.34190369 27.28547668 C18.3398169 29.89369569 18.31649139 32.50126855 18.29296875 35.109375 C18.2873724 36.91969451 18.28310248 38.73001856 18.28010559 40.54034424 C18.2686599 45.30141783 18.23919508 50.06221619 18.20599365 54.82318115 C18.17528684 59.68286414 18.16159894 64.54259168 18.14648438 69.40234375 C18.11432513 78.93501666 18.06313208 88.46748543 18 98 C15.28344597 99.35827701 13.09210594 99.1323445 10.0625 99.125 C9.00160156 99.12757813 7.94070312 99.13015625 6.84765625 99.1328125 C4 99 4 99 1 98 C-0.7026057 94.59478859 -0.12864821 90.70607881 -0.11352539 86.96044922 C-0.11367142 86.02381439 -0.11381744 85.08717957 -0.1139679 84.12216187 C-0.11326944 81.01631378 -0.10548015 77.91052515 -0.09765625 74.8046875 C-0.09579183 72.65520256 -0.09436804 70.5057172 -0.09336853 68.35623169 C-0.08954522 62.69104851 -0.07971651 57.02589085 -0.06866455 51.36071777 C-0.05844644 45.58292994 -0.05387005 39.805138 -0.04882812 34.02734375 C-0.03809409 22.6848846 -0.02101989 11.34244442 0 0 Z " fill="#000000" transform="translate(30,63)"/>
<path d="M0 0 C-0.61541495 4.00019715 -2.74803129 6.71212568 -5 10 C-6.01320313 9.89300781 -7.02640625 9.78601563 -8.0703125 9.67578125 C-9.42179272 9.55377262 -10.7733604 9.43273011 -12.125 9.3125 C-12.79015625 9.23966797 -13.4553125 9.16683594 -14.140625 9.09179688 C-19.00190671 8.68669007 -21.82058954 9.58784767 -26 12 C-26.66 12 -27.32 12 -28 12 C-28.43119141 12.87011719 -28.43119141 12.87011719 -28.87109375 13.7578125 C-29.56728653 15.14056217 -30.28452466 16.51321806 -31.03515625 17.8671875 C-35.38889939 26.3760239 -35.0583995 35.40011324 -34.9453125 44.734375 C-34.93032715 46.25200439 -34.93032715 46.25200439 -34.91503906 47.80029297 C-34.8888684 49.81000823 -34.84720395 51.81959726 -34.78808594 53.82861328 C-34.66507022 61.46998328 -35.842678 66.79483589 -40.1875 73.25 C-43.40126616 76.39234913 -46.62220693 78.79776516 -51 80 C-52.6737366 79.70420498 -54.34206792 79.37436625 -56 79 C-56.06961858 70.49832462 -56.1228712 61.99676906 -56.15543652 53.49487877 C-56.17106904 49.54677613 -56.1922628 45.59886903 -56.22631836 41.65087891 C-56.25899851 37.83832511 -56.27687117 34.025959 -56.28463173 30.21327591 C-56.29015977 28.76125765 -56.30095474 27.30924926 -56.31719017 25.85731125 C-56.33908046 23.81789995 -56.34196223 21.77925664 -56.34057617 19.73974609 C-56.34723801 18.58058685 -56.35389984 17.42142761 -56.36076355 16.22714233 C-55.66085799 9.96626909 -52.6442177 6.03982162 -47.9140625 2.1953125 C-45.02044024 0.38827492 -42.3641911 0.06728382 -39 0 C-38 1 -38 1 -37.90234375 3.06640625 C-37.91394531 3.89011719 -37.92554688 4.71382813 -37.9375 5.5625 C-37.94652344 6.38878906 -37.95554688 7.21507813 -37.96484375 8.06640625 C-37.97644531 8.70449219 -37.98804688 9.34257813 -38 10 C-37.20078125 9.31292969 -36.4015625 8.62585938 -35.578125 7.91796875 C-25.937889 -0.10051764 -12.10137568 -8.06758379 0 0 Z " fill="#000000" transform="translate(284,82)"/>
<path d="M0 0 C5.97581819 6.97985242 7.18002617 12.71619854 7.1875 21.625 C7.19974609 22.40101562 7.21199219 23.17703125 7.22460938 23.9765625 C7.22984167 25.98576362 7.12248735 27.99452914 7 30 C4.56280502 32.43719498 3.91028719 32.26040932 0.56616211 32.30297852 C-0.35141373 32.31962051 -1.26898956 32.33626251 -2.21437073 32.35340881 C-3.70347206 32.36603004 -3.70347206 32.36603004 -5.22265625 32.37890625 C-6.23847275 32.39590073 -7.25428925 32.4128952 -8.30088806 32.43040466 C-11.55469512 32.48366892 -14.80848849 32.52389593 -18.0625 32.5625 C-21.32001661 32.60635533 -24.57743149 32.65299985 -27.83482361 32.70530701 C-29.86466373 32.73738441 -31.894594 32.76423634 -33.92457581 32.78553772 C-34.83899948 32.79902756 -35.75342316 32.8125174 -36.69555664 32.82641602 C-37.9089547 32.84068382 -37.9089547 32.84068382 -39.14686584 32.85523987 C-41.01592711 32.79929701 -41.01592711 32.79929701 -42 34 C-42.49529926 44.40128441 -40.98091065 54.23652663 -35 63 C-31.32679372 66.81070598 -27.26568648 67.27791189 -22.125 67.5 C-15.12242475 67.26336729 -10.02423394 64.9932451 -4.25 61.1875 C-2 60 -2 60 0.8125 60.3125 C1.534375 60.539375 2.25625 60.76625 3 61 C3.33 62.65 3.66 64.3 4 66 C-8.73409593 76.51392289 -20.88895815 79.26297614 -37 78 C-45.13888285 76.90550073 -50.60354879 71.95307817 -56 66 C-62.65602897 56.80908149 -63.36229637 47.27675275 -63.375 36.25 C-63.39949219 35.1465625 -63.42398437 34.043125 -63.44921875 32.90625 C-63.49185396 20.79784912 -60.20280535 10.08824055 -52 1 C-37.62496972 -10.98399318 -14.60822227 -11.71133752 0 0 Z M-37.4375 7.6953125 C-41.05088196 12.76636559 -42.16935666 17.79428822 -42 24 C-39.25106228 26.74893772 -30.83249478 25.18568082 -27.125 25.1875 C-25.81917969 25.19974609 -24.51335937 25.21199219 -23.16796875 25.22460938 C-21.91886719 25.22654297 -20.66976562 25.22847656 -19.3828125 25.23046875 C-18.23184082 25.23457764 -17.08086914 25.23868652 -15.89501953 25.24291992 C-12.80405701 25.2183384 -12.80405701 25.2183384 -10 23 C-8.79190912 17.18458211 -10.21155719 12.0789494 -13 7 C-15.81365591 3.65878361 -17.84323452 2.22644181 -22.26953125 1.76171875 C-28.95247552 1.56667122 -32.91092695 2.35690841 -37.4375 7.6953125 Z " fill="#000000" transform="translate(489,87)"/>
<path d="M0 0 C8.36721406 7.09892056 12.79857223 15.80908993 13.79003906 26.76416016 C14.60418772 41.04760463 14.08455025 55.39518127 5.26171875 67.3515625 C-0.9405894 74.28103781 -9.0991703 78.72870766 -18.44116211 79.39233398 C-31.14744273 79.93317318 -42.37543678 79.47223509 -52.65625 71.06640625 C-61.07196016 62.48459655 -63.80230145 50.99060081 -63.84765625 39.2890625 C-63.83605469 38.28617188 -63.82445312 37.28328125 -63.8125 36.25 C-63.82410156 35.24710938 -63.83570313 34.24421875 -63.84765625 33.2109375 C-63.79818102 20.44632895 -60.55065307 10.0630808 -51.4375 1 C-37.79614367 -10.41648931 -14.37683901 -9.94692453 0 0 Z M-36.625 8.4375 C-44.97194114 21.38965004 -44.63068073 38.72868045 -41.8359375 53.41015625 C-40.18824417 59.41246768 -37.99612536 64.46491254 -32.75 68.125 C-27.16851859 70.02059746 -22.58838721 70.24271717 -17.1875 67.75 C-10.79252107 61.93638279 -7.89871851 55.05502682 -7.21679688 46.47216797 C-6.1508615 26.00551002 -6.1508615 26.00551002 -13.875 7.5625 C-17.5655195 4.23203118 -19.95197239 3.38504796 -24.875 2.9375 C-29.94726754 3.38243575 -33.02764783 4.84014783 -36.625 8.4375 Z " fill="#000000" transform="translate(682.4375,85.75)"/>
<path d="M0 0 C1.0625 1.6875 1.0625 1.6875 1 4 C-0.15613747 6.48890704 -1.52239961 8.67166 -3 11 C-3.94875 10.835 -4.8975 10.67 -5.875 10.5 C-13.36511508 9.50131799 -19.79864732 8.73942624 -26.2421875 13.3046875 C-31.33208634 18.21361216 -33.86164738 24.56261606 -34.1418457 31.52416992 C-34.15653613 32.9262382 -34.16763448 34.32834718 -34.17578125 35.73046875 C-34.19899236 37.27149784 -34.22311021 38.81251349 -34.24804688 40.35351562 C-34.28301458 42.76481982 -34.31243359 45.17563239 -34.32592773 47.5871582 C-34.44161327 64.90617308 -34.44161327 64.90617308 -39 72 C-39.35779541 72.56525391 -39.71559082 73.13050781 -40.08422852 73.71289062 C-43.0791598 77.8223754 -47.15946506 80.53163689 -52 82 C-52.99 81.67 -53.98 81.34 -55 81 C-55.0928022 71.97682722 -55.1638165 62.95381948 -55.20724869 53.93027306 C-55.22809718 49.73996462 -55.25636416 45.54998341 -55.30175781 41.35986328 C-55.34531419 37.31387758 -55.3691577 33.26820605 -55.37950897 29.22200394 C-55.38688286 27.68065065 -55.40128257 26.13931398 -55.42292023 24.59809494 C-55.45208611 22.43400064 -55.45595076 20.27119375 -55.45410156 18.10693359 C-55.46298401 16.87671478 -55.47186646 15.64649597 -55.48101807 14.3789978 C-54.71530319 9.00009611 -51.94661699 5.94661699 -48.1875 2.1875 C-44.6329307 -0.2519103 -42.27441731 -0.83237579 -38 -1 C-37 0 -37 0 -36.90234375 2.50390625 C-36.91394531 3.51324219 -36.92554688 4.52257812 -36.9375 5.5625 C-36.94652344 6.57441406 -36.95554687 7.58632812 -36.96484375 8.62890625 C-36.97644531 9.41136719 -36.98804688 10.19382812 -37 11 C-36.38253906 10.46890625 -35.76507812 9.9378125 -35.12890625 9.390625 C-26.20033677 1.94335548 -11.77722816 -7.13771404 0 0 Z " fill="#000000" transform="translate(841,81)"/>
<path d="M0 0 C0.66 0.66 1.32 1.32 2 2 C1.9375 4.375 1.9375 4.375 1 7 C-1.5625 9.3125 -1.5625 9.3125 -4 11 C-4.66386719 10.72285156 -5.32773437 10.44570312 -6.01171875 10.16015625 C-6.89472656 9.79792969 -7.77773438 9.43570313 -8.6875 9.0625 C-9.55761719 8.70285156 -10.42773438 8.34320313 -11.32421875 7.97265625 C-17.9217709 5.57442197 -25.29078474 4.66213964 -31.9375 7.3125 C-35.20304787 8.80511123 -35.20304787 8.80511123 -37 12 C-37.45323903 15.47483259 -37.2914055 17.43106545 -35.6875 20.5625 C-31.65177657 24.2228073 -26.98653317 25.90887319 -22 28 C-2.48578199 36.65803236 -2.48578199 36.65803236 3.8125 45.5625 C6.22660273 52.55069211 6.05586153 59.55037397 3 66.3125 C-1.14990709 73.60414465 -7.09334658 78.36444886 -15 81 C-27.4252526 83.48157978 -42.01268248 83.13519877 -53.37890625 77.09765625 C-55.18139582 75.87717536 -56.60194409 74.67168153 -58 73 C-57.8579936 70.15987202 -57.32548508 68.48822761 -55.75 66.125 C-54 65 -54 65 -51.703125 65.2734375 C-48.86652607 66.03587594 -46.59761316 67.137837 -44 68.5 C-36.8165297 71.84905034 -28.77089719 73.10270859 -20.9375 71.375 C-17.42453583 69.73063379 -15.97000531 68.33385515 -14 65 C-12.92120891 61.5478685 -12.62039907 59.85208295 -14.1015625 56.52734375 C-16.49296312 53.34373016 -18.72056537 52.25880435 -22.3125 50.5625 C-22.92625488 50.26666016 -23.54000977 49.97082031 -24.17236328 49.66601562 C-27.327731 48.16506658 -30.51343659 46.7714161 -33.75390625 45.46484375 C-49.01983007 39.28930823 -49.01983007 39.28930823 -53.1796875 31.90625 C-55.72099692 25.51924227 -55.37234098 19.31975514 -53.3125 12.8359375 C-50.41243888 6.12954616 -44.9406516 1.12069297 -38.3125 -1.875 C-25.54999551 -6.20943549 -12.50006907 -4.17685235 0 0 Z " fill="#000000" transform="translate(899,83)"/>
<path d="M0 0 C5.99228148 5.13624127 8.59879068 10.35390553 9.28520203 18.30270386 C9.3015419 19.43886139 9.31788177 20.57501892 9.3347168 21.74560547 C9.36936287 23.69199417 9.36936287 23.69199417 9.40470886 25.67770386 C9.41989961 27.0741946 9.43472783 28.47068932 9.44921875 29.8671875 C9.47049515 31.31211346 9.49246349 32.75702938 9.51509094 34.20193481 C9.56029798 37.21595733 9.59914968 40.22997023 9.63305664 43.24414062 C9.67683394 47.11485133 9.73356909 50.98523804 9.7946043 54.85571098 C9.84066027 57.83237743 9.88150131 60.80909633 9.92057228 63.78586197 C9.93965671 65.21408958 9.96001907 66.6423007 9.98166466 68.07049179 C10.01068748 70.05718061 10.03227183 72.04397397 10.0534668 74.03076172 C10.06741989 75.16214569 10.08137299 76.29352966 10.0957489 77.459198 C10 80 10 80 9 81 C2.90054076 81.60994592 -0.06998314 80.2866779 -5 77 C-5.99 76.01 -5.99 76.01 -7 75 C-10.21984465 75.38801511 -12.65121486 76.85406308 -15.4375 78.4375 C-25.19093981 83.36434771 -35.53927566 84.05170003 -46 81 C-51.74734261 78.1263287 -54.96903531 74.09289406 -57 68 C-57.67205277 60.56335051 -57.67783459 54.07610037 -53 48 C-43.14955512 36.83333189 -29.71208046 33.35751749 -15.796875 29.98046875 C-12.23392845 29.40321212 -12.23392845 29.40321212 -11 28 C-10.84672386 25.77454838 -10.77796926 23.54304841 -10.75 21.3125 C-10.71132813 19.48138672 -10.71132813 19.48138672 -10.671875 17.61328125 C-11.02845615 13.68664364 -11.87829947 11.3064819 -14 8 C-22.25700052 5.24766649 -29.5194946 7.12980627 -37.2734375 10.515625 C-40.10533082 11.94794272 -40.10533082 11.94794272 -42.67578125 14.1875 C-45 16 -45 16 -47.8125 15.75 C-48.534375 15.5025 -49.25625 15.255 -50 15 C-50.8125 13.3125 -50.8125 13.3125 -51 11 C-40.65890581 -2.00976366 -14.91854214 -9.20897663 0 0 Z M-35 49 C-38.52975302 53.96371518 -38.86376273 59.08802398 -38 65 C-36.33388151 68.45565316 -35.03501687 70.29984153 -31.875 72.4375 C-25.5488573 73.67522357 -19.93578803 72.9117075 -14.4375 69.5 C-12.8487063 68.40031181 -11.36512508 67.36512508 -10 66 C-9.90016942 64.01242972 -9.86919247 62.0213248 -9.8671875 60.03125 C-9.86589844 58.82082031 -9.86460937 57.61039063 -9.86328125 56.36328125 C-9.86908203 54.45095703 -9.86908203 54.45095703 -9.875 52.5 C-9.87113281 51.22511719 -9.86726563 49.95023438 -9.86328125 48.63671875 C-9.86457031 47.42628906 -9.86585938 46.21585938 -9.8671875 44.96875 C-9.86831543 43.84919922 -9.86944336 42.72964844 -9.87060547 41.57617188 C-9.70783632 39.06858198 -9.70783632 39.06858198 -11 38 C-20.79267646 36.97992953 -28.48067789 42.03687428 -35 49 Z " fill="#000000" transform="translate(339,83)"/>
<path d="M0 0 C1.07728071 24.32476917 1.07728071 24.32476917 1 32.0625 C0.95970404 38.52597251 1.10775165 44.97778617 1.3125 51.4375 C1.33505859 52.4694751 1.35761719 53.5014502 1.38085938 54.56469727 C1.59102359 60.42206934 2.15957146 64.83431869 5 70 C8.33629668 72.95500563 11.42842285 73.51440571 15.87109375 73.37109375 C19.03453991 72.81966736 21.56930624 71.46223068 24.3359375 69.875 C26 69 26 69 28 69 C29.82475727 65.8704811 30.25364348 63.58114251 30.27124023 59.9753418 C30.28142685 58.97717941 30.29161346 57.97901703 30.30210876 56.9506073 C30.30424881 55.87764908 30.30638885 54.80469086 30.30859375 53.69921875 C30.33375647 51.41991935 30.35915445 49.14062253 30.38476562 46.86132812 C30.41348768 43.27352585 30.43750907 39.68576856 30.45629883 36.09790039 C30.47799851 32.63143515 30.51744522 29.1654998 30.55859375 25.69921875 C30.55870956 24.63233322 30.55882538 23.56544769 30.5589447 22.4662323 C30.65056704 15.54502752 31.14883287 10.15039853 35.97265625 4.8203125 C36.66230469 4.26085937 37.35195313 3.70140625 38.0625 3.125 C38.75472656 2.55007812 39.44695313 1.97515625 40.16015625 1.3828125 C43.79488731 -1.34902358 46.50969972 -1.08315371 51 -1 C51.13211201 7.03366347 51.26260101 15.06735114 51.39115143 23.10107231 C51.45092361 26.83350771 51.51120571 30.56593327 51.57275391 34.29833984 C52.04216389 62.81435096 52.04216389 62.81435096 52.09375 74.0078125 C52.1002356 74.73088593 52.10672119 75.45395935 52.11340332 76.19894409 C52.1149217 77.79974172 52.06420894 79.4004899 52 81 C50.46028172 82.53971828 49.01514329 82.31779707 46.875 82.4375 C42.00896372 82.41414303 39.68523273 80.76572868 36.21484375 77.5078125 C35 76 35 76 35 74 C34.31035156 74.47050781 33.62070312 74.94101563 32.91015625 75.42578125 C21.0295175 83.29731556 10.63832103 85.80961699 -3.5625 83.6015625 C-9.12613711 81.92812477 -12.96439499 77.77243217 -16 73 C-18.77592522 66.7552543 -19.48765177 61.52075958 -19.58203125 54.7265625 C-19.6047258 53.76277679 -19.62742035 52.79899109 -19.65080261 51.80599976 C-19.69517784 49.77737999 -19.73260413 47.74859748 -19.76342773 45.71972656 C-19.81225323 42.64056271 -19.88786669 39.56289813 -19.96679688 36.484375 C-20.00681228 34.5026359 -20.04527457 32.52086472 -20.08203125 30.5390625 C-20.10481644 29.63145172 -20.12760162 28.72384094 -20.15107727 27.78872681 C-20.25161576 19.40768751 -19.86091775 10.46203751 -14 4 C-9.06664772 0.43394386 -6.04747684 -1.40984507 0 0 Z " fill="#000000" transform="translate(724,81)"/>
<path d="M0 0 C2.54756806 0 4.21875239 0.2253484 6.58203125 1.1875 C7.95184326 3.1219635 7.95184326 3.1219635 9.10058594 5.60571289 C9.52029663 6.51209503 9.94000732 7.41847717 10.37243652 8.35232544 C12.24685753 12.74578934 13.93280998 17.18445292 15.53515625 21.68359375 C15.88084656 22.63895523 16.22653687 23.59431671 16.58270264 24.57862854 C17.67154147 27.59205616 18.75187949 30.60844915 19.83203125 33.625 C20.57106198 35.67402752 21.31064062 37.72285751 22.05078125 39.77148438 C27.20226156 54.04819093 27.20226156 54.04819093 28.58203125 58.1875 C29.24203125 58.1875 29.90203125 58.1875 30.58203125 58.1875 C31.00500488 57.01356689 31.42797852 55.83963379 31.86376953 54.63012695 C33.45708987 50.2128138 35.05803956 45.79829631 36.66113281 41.38452148 C37.34969205 39.48551883 38.03626845 37.58579585 38.72070312 35.68530273 C49.52052753 5.70947432 49.52052753 5.70947432 54.05126953 2.36450195 C57.06900774 0.96101788 59.29164038 0.95793785 62.58203125 1.1875 C64.41410741 6.34846752 62.43849702 9.97606413 60.41796875 14.73828125 C60.07408615 15.57775803 59.73020355 16.4172348 59.37590027 17.28215027 C58.24843662 20.02662938 57.10298718 22.76319704 55.95703125 25.5 C55.17707957 27.38751533 54.39836064 29.2755405 53.62084961 31.1640625 C52.04384965 34.9913731 50.46064324 38.81603118 48.87353516 42.63916016 C46.75656497 47.74986359 44.68163067 52.87648142 42.625 58.01171875 C42.02751588 59.5002479 41.43002268 60.98877341 40.83251953 62.47729492 C39.99297693 64.56967449 39.15451616 66.66244905 38.31976318 68.75674438 C37.55907129 70.66264896 36.79144493 72.56578153 36.0234375 74.46875 C35.59748291 75.53158203 35.17152832 76.59441406 34.73266602 77.68945312 C33.58203125 80.1875 33.58203125 80.1875 31.58203125 82.1875 C28.61328125 82.41796875 28.61328125 82.41796875 25.08203125 82.375 C23.91671875 82.36855469 22.75140625 82.36210937 21.55078125 82.35546875 C18.58203125 82.1875 18.58203125 82.1875 16.58203125 81.1875 C15.71200562 79.41752625 15.71200562 79.41752625 14.82958984 77.0769043 C14.4951889 76.20055832 14.16078796 75.32421234 13.81625366 74.42131042 C13.45794464 73.46114517 13.09963562 72.50097992 12.73046875 71.51171875 C12.35274323 70.51735306 11.9750177 69.52298737 11.58584595 68.49848938 C10.36959581 65.29312996 9.16294162 62.08426207 7.95703125 58.875 C6.38434853 54.71116292 4.80780044 50.54879663 3.23046875 46.38671875 C2.84288391 45.3620047 2.45529907 44.33729065 2.05596924 43.28152466 C-0.82068673 35.69793454 -3.78949404 28.15494764 -6.83071899 20.63591003 C-9.16365559 14.86575962 -11.3687719 9.06545939 -13.41796875 3.1875 C-9.83349925 -0.3969695 -4.83659441 0.37505094 0 0 Z " fill="#000000" transform="translate(362.41796875,79.8125)"/>
</svg>
